<mxfile host="app.diagrams.net" modified="2021-05-18T01:43:31.719Z" agent="5.0 (Windows NT 10.0; Win64; x64) AppleWebKit/537.36 (KHTML, like Gecko) Chrome/90.0.4430.212 Safari/537.36" etag="ZiEJD98ZTChZ6ZXGilom" version="14.6.13" type="github">
  <diagram id="8P6N0LwRNLTBdgFiiUYV" name="Page-1">
    <mxGraphModel dx="1330" dy="855" grid="1" gridSize="10" guides="1" tooltips="1" connect="1" arrows="1" fold="1" page="1" pageScale="1" pageWidth="827" pageHeight="1169" math="0" shadow="0">
      <root>
        <mxCell id="0" />
        <mxCell id="1" parent="0" />
        <mxCell id="QqbPWeWihkms43EXl_Cp-4" style="edgeStyle=orthogonalEdgeStyle;rounded=0;orthogonalLoop=1;jettySize=auto;html=1;entryX=0.5;entryY=0;entryDx=0;entryDy=0;" edge="1" parent="1" source="QqbPWeWihkms43EXl_Cp-1" target="QqbPWeWihkms43EXl_Cp-2">
          <mxGeometry relative="1" as="geometry" />
        </mxCell>
        <mxCell id="QqbPWeWihkms43EXl_Cp-1" value="" style="ellipse;whiteSpace=wrap;html=1;" vertex="1" parent="1">
          <mxGeometry x="320" y="70" width="120" height="80" as="geometry" />
        </mxCell>
        <mxCell id="QqbPWeWihkms43EXl_Cp-5" style="edgeStyle=orthogonalEdgeStyle;rounded=0;orthogonalLoop=1;jettySize=auto;html=1;entryX=0.5;entryY=0;entryDx=0;entryDy=0;" edge="1" parent="1" source="QqbPWeWihkms43EXl_Cp-2" target="QqbPWeWihkms43EXl_Cp-3">
          <mxGeometry relative="1" as="geometry" />
        </mxCell>
        <mxCell id="QqbPWeWihkms43EXl_Cp-2" value="" style="rounded=1;whiteSpace=wrap;html=1;" vertex="1" parent="1">
          <mxGeometry x="320" y="200" width="120" height="60" as="geometry" />
        </mxCell>
        <mxCell id="QqbPWeWihkms43EXl_Cp-6" style="edgeStyle=orthogonalEdgeStyle;rounded=0;orthogonalLoop=1;jettySize=auto;html=1;entryX=1;entryY=0.5;entryDx=0;entryDy=0;" edge="1" parent="1" source="QqbPWeWihkms43EXl_Cp-3" target="QqbPWeWihkms43EXl_Cp-2">
          <mxGeometry relative="1" as="geometry">
            <Array as="points">
              <mxPoint x="460" y="350" />
              <mxPoint x="460" y="230" />
            </Array>
          </mxGeometry>
        </mxCell>
        <mxCell id="QqbPWeWihkms43EXl_Cp-3" value="" style="rounded=1;whiteSpace=wrap;html=1;" vertex="1" parent="1">
          <mxGeometry x="320" y="320" width="120" height="60" as="geometry" />
        </mxCell>
      </root>
    </mxGraphModel>
  </diagram>
</mxfile>
